# xmcd
#
# Track frame offsets:
#   150
#   18171
#   30880
#   44923
#   61750
#   76682
#   88960
#   102669
#   120565
#   137217
#   152866
#   176376
#   189403
#   203004
#   217524
#
# Disc length: 3091 seconds
#
# Revision: 0
# Processed by: cddbd v1.5.2PL0 Copyright (c) Steve Scherf et al.
# Submitted via: uFREEDB ActiveX Control 1.5
#
DISCID=bc0c110f
DTITLE=Maria Cecilia e Rodolfo - Você de Volta
DYEAR=1900
DGENRE=Country
TTITLE0=Você de Volta
TTITLE1=Pode ser pra Valer
TTITLE2=A Fila Andou
TTITLE3=Delícia
TTITLE4=Basta Você me Olhar
TTITLE5=Mato e Morro por Você
TTITLE6=Coisas Exotéricas
TTITLE7=Primeiro Passo
TTITLE8=Você me Paga
TTITLE9=Evidências
TTITLE10=Pout-Pourri Guarânias
TTITLE11=Ela Não Me Quer
TTITLE12=Me de uma Chance
TTITLE13=Nós Dois
TTITLE14=Bonus Track-Vou Jogar a Chave Fora
EXTD=
EXTT0=
EXTT1=
EXTT2=
EXTT3=
EXTT4=
EXTT5=
EXTT6=
EXTT7=
EXTT8=
EXTT9=
EXTT10=
EXTT11=
EXTT12=
EXTT13=
EXTT14=
PLAYORDER=
